<mxfile host="app.diagrams.net" agent="Mozilla/5.0 (Windows NT 10.0; Win64; x64) AppleWebKit/537.36 (KHTML, like Gecko) Chrome/141.0.0.0 Safari/537.36 Edg/141.0.0.0" version="28.2.5">
  <diagram name="Page-1" id="TsuPMnn9aCGUMomj6AAi">
    <mxGraphModel dx="1877" dy="1751" grid="1" gridSize="10" guides="1" tooltips="1" connect="1" arrows="1" fold="1" page="1" pageScale="1" pageWidth="827" pageHeight="1169" math="0" shadow="0">
      <root>
        <mxCell id="0" />
        <mxCell id="1" parent="0" />
        <mxCell id="0ZANX-X3bsHkDOByZwOm-1" value="Program" style="swimlane;fontStyle=1;align=center;verticalAlign=top;childLayout=stackLayout;horizontal=1;startSize=26;horizontalStack=0;resizeParent=1;resizeParentMax=0;resizeLast=0;collapsible=1;marginBottom=0;whiteSpace=wrap;html=1;" parent="1" vertex="1">
          <mxGeometry x="40" y="-220" width="160" height="102" as="geometry" />
        </mxCell>
        <mxCell id="0ZANX-X3bsHkDOByZwOm-2" value="+ ScreenW : int {const}&lt;div&gt;+ ScreenH : int {const}&lt;/div&gt;" style="text;strokeColor=none;fillColor=none;align=left;verticalAlign=top;spacingLeft=4;spacingRight=4;overflow=hidden;rotatable=0;points=[[0,0.5],[1,0.5]];portConstraint=eastwest;whiteSpace=wrap;html=1;" parent="0ZANX-X3bsHkDOByZwOm-1" vertex="1">
          <mxGeometry y="26" width="160" height="34" as="geometry" />
        </mxCell>
        <mxCell id="0ZANX-X3bsHkDOByZwOm-3" value="" style="line;strokeWidth=1;fillColor=none;align=left;verticalAlign=middle;spacingTop=-1;spacingLeft=3;spacingRight=3;rotatable=0;labelPosition=right;points=[];portConstraint=eastwest;strokeColor=inherit;" parent="0ZANX-X3bsHkDOByZwOm-1" vertex="1">
          <mxGeometry y="60" width="160" height="8" as="geometry" />
        </mxCell>
        <mxCell id="0ZANX-X3bsHkDOByZwOm-4" value="&lt;u&gt;- Main(String[] args) : void&lt;/u&gt;" style="text;strokeColor=none;fillColor=none;align=left;verticalAlign=top;spacingLeft=4;spacingRight=4;overflow=hidden;rotatable=0;points=[[0,0.5],[1,0.5]];portConstraint=eastwest;whiteSpace=wrap;html=1;" parent="0ZANX-X3bsHkDOByZwOm-1" vertex="1">
          <mxGeometry y="68" width="160" height="34" as="geometry" />
        </mxCell>
        <mxCell id="0ZANX-X3bsHkDOByZwOm-5" value="Entity" style="swimlane;fontStyle=1;align=center;verticalAlign=top;childLayout=stackLayout;horizontal=1;startSize=26;horizontalStack=0;resizeParent=1;resizeParentMax=0;resizeLast=0;collapsible=1;marginBottom=0;whiteSpace=wrap;html=1;" parent="1" vertex="1">
          <mxGeometry x="180" y="70" width="300" height="250" as="geometry" />
        </mxCell>
        <mxCell id="0ZANX-X3bsHkDOByZwOm-6" value="- textureName : string {readonly}&lt;div&gt;# srpite : Sprite {readonly}&lt;/div&gt;&lt;div&gt;+ Dead : bool&lt;/div&gt;&lt;div&gt;+ DontDestroyOnLoad : bool&lt;/div&gt;" style="text;strokeColor=none;fillColor=none;align=left;verticalAlign=top;spacingLeft=4;spacingRight=4;overflow=hidden;rotatable=0;points=[[0,0.5],[1,0.5]];portConstraint=eastwest;whiteSpace=wrap;html=1;" parent="0ZANX-X3bsHkDOByZwOm-5" vertex="1">
          <mxGeometry y="26" width="300" height="64" as="geometry" />
        </mxCell>
        <mxCell id="0ZANX-X3bsHkDOByZwOm-7" value="" style="line;strokeWidth=1;fillColor=none;align=left;verticalAlign=middle;spacingTop=-1;spacingLeft=3;spacingRight=3;rotatable=0;labelPosition=right;points=[];portConstraint=eastwest;strokeColor=inherit;" parent="0ZANX-X3bsHkDOByZwOm-5" vertex="1">
          <mxGeometry y="90" width="300" height="8" as="geometry" />
        </mxCell>
        <mxCell id="0ZANX-X3bsHkDOByZwOm-8" value="#&amp;lt;&amp;lt;constructor&amp;gt;&amp;gt;(textureName : string)&lt;div&gt;+ Position : Vector2&lt;/div&gt;&lt;div&gt;+ Bounds : FloatRect {virtual}&lt;/div&gt;&lt;div&gt;+ Solid : bool {virtual}&lt;/div&gt;&lt;div&gt;+ Create(scene : Scene) {virtual}&lt;/div&gt;&lt;div&gt;+ Destroy(scene : Scene) {virtual}&lt;/div&gt;&lt;div&gt;+ Update(scene : Scene, deltaTime : float)&lt;/div&gt;&lt;div&gt;+ Render(target : RenderTarget) {virtual}&lt;/div&gt;&lt;div&gt;# CollideWith(s : Scene, other Entity) {virtual}&lt;/div&gt;" style="text;strokeColor=none;fillColor=none;align=left;verticalAlign=top;spacingLeft=4;spacingRight=4;overflow=hidden;rotatable=0;points=[[0,0.5],[1,0.5]];portConstraint=eastwest;whiteSpace=wrap;html=1;" parent="0ZANX-X3bsHkDOByZwOm-5" vertex="1">
          <mxGeometry y="98" width="300" height="152" as="geometry" />
        </mxCell>
        <mxCell id="0ZANX-X3bsHkDOByZwOm-9" value="SceneLoader&lt;div&gt;&lt;br&gt;&lt;/div&gt;" style="swimlane;fontStyle=1;align=center;verticalAlign=top;childLayout=stackLayout;horizontal=1;startSize=26;horizontalStack=0;resizeParent=1;resizeParentMax=0;resizeLast=0;collapsible=1;marginBottom=0;whiteSpace=wrap;html=1;" parent="1" vertex="1">
          <mxGeometry x="606" y="-290" width="240" height="180" as="geometry" />
        </mxCell>
        <mxCell id="0ZANX-X3bsHkDOByZwOm-10" value="+ loaders : Dictionary&amp;lt;char, Func&amp;lt;Entity&amp;gt;&amp;gt; {readonly}&lt;div&gt;- currentScene : string&lt;/div&gt;&lt;div&gt;- nextScene : string&lt;/div&gt;" style="text;strokeColor=none;fillColor=none;align=left;verticalAlign=top;spacingLeft=4;spacingRight=4;overflow=hidden;rotatable=0;points=[[0,0.5],[1,0.5]];portConstraint=eastwest;whiteSpace=wrap;html=1;" parent="0ZANX-X3bsHkDOByZwOm-9" vertex="1">
          <mxGeometry y="26" width="240" height="64" as="geometry" />
        </mxCell>
        <mxCell id="0ZANX-X3bsHkDOByZwOm-11" value="" style="line;strokeWidth=1;fillColor=none;align=left;verticalAlign=middle;spacingTop=-1;spacingLeft=3;spacingRight=3;rotatable=0;labelPosition=right;points=[];portConstraint=eastwest;strokeColor=inherit;" parent="0ZANX-X3bsHkDOByZwOm-9" vertex="1">
          <mxGeometry y="90" width="240" height="10" as="geometry" />
        </mxCell>
        <mxCell id="0ZANX-X3bsHkDOByZwOm-12" value="- Create(symbol : char, out created : Entity) : bool&lt;div&gt;+ HandleSceneLoad(scene Scene)&lt;/div&gt;&lt;div&gt;+ Load(scene : string) &amp;lt;&amp;lt;lambdas&amp;gt;&amp;gt;&lt;/div&gt;&lt;div&gt;+ Reload() &amp;lt;&amp;lt;lambdas&amp;gt;&amp;gt;&lt;/div&gt;" style="text;strokeColor=none;fillColor=none;align=left;verticalAlign=top;spacingLeft=4;spacingRight=4;overflow=hidden;rotatable=0;points=[[0,0.5],[1,0.5]];portConstraint=eastwest;whiteSpace=wrap;html=1;" parent="0ZANX-X3bsHkDOByZwOm-9" vertex="1">
          <mxGeometry y="100" width="240" height="80" as="geometry" />
        </mxCell>
        <mxCell id="0ZANX-X3bsHkDOByZwOm-64" style="edgeStyle=orthogonalEdgeStyle;rounded=0;orthogonalLoop=1;jettySize=auto;html=1;" parent="1" edge="1">
          <mxGeometry relative="1" as="geometry">
            <mxPoint x="200" y="360" as="targetPoint" />
            <mxPoint x="200" y="360" as="sourcePoint" />
          </mxGeometry>
        </mxCell>
        <mxCell id="0ZANX-X3bsHkDOByZwOm-17" value="Gui" style="swimlane;fontStyle=1;align=center;verticalAlign=top;childLayout=stackLayout;horizontal=1;startSize=26;horizontalStack=0;resizeParent=1;resizeParentMax=0;resizeLast=0;collapsible=1;marginBottom=0;whiteSpace=wrap;html=1;" parent="1" vertex="1">
          <mxGeometry x="-130" y="380" width="290" height="300" as="geometry" />
        </mxCell>
        <mxCell id="0ZANX-X3bsHkDOByZwOm-18" value="- scoreText : Text&lt;div&gt;+ highscoreText : Text&lt;/div&gt;&lt;div&gt;- maxHealth : int&lt;/div&gt;&lt;div&gt;- currentHealth : int&lt;/div&gt;&lt;div&gt;+ currentScore : int&lt;/div&gt;&lt;div&gt;+ highScore : int&lt;/div&gt;&lt;div&gt;- font : Font&lt;/div&gt;&lt;div&gt;&lt;u&gt;- folderPath : string {readonly}&lt;/u&gt;&lt;/div&gt;&lt;div&gt;&lt;u&gt;- filePath : string {readonly}&lt;/u&gt;&lt;/div&gt;&lt;div&gt;+ actor : Actor&lt;/div&gt;" style="text;strokeColor=none;fillColor=none;align=left;verticalAlign=top;spacingLeft=4;spacingRight=4;overflow=hidden;rotatable=0;points=[[0,0.5],[1,0.5]];portConstraint=eastwest;whiteSpace=wrap;html=1;" parent="0ZANX-X3bsHkDOByZwOm-17" vertex="1">
          <mxGeometry y="26" width="290" height="154" as="geometry" />
        </mxCell>
        <mxCell id="0ZANX-X3bsHkDOByZwOm-19" value="" style="line;strokeWidth=1;fillColor=none;align=left;verticalAlign=middle;spacingTop=-1;spacingLeft=3;spacingRight=3;rotatable=0;labelPosition=right;points=[];portConstraint=eastwest;strokeColor=inherit;" parent="0ZANX-X3bsHkDOByZwOm-17" vertex="1">
          <mxGeometry y="180" width="290" height="8" as="geometry" />
        </mxCell>
        <mxCell id="0ZANX-X3bsHkDOByZwOm-20" value="+&amp;lt;&amp;lt;constructor&amp;gt;&amp;gt;&lt;div&gt;+ Create(scene Scene) &amp;lt;&amp;lt;override&amp;gt;&amp;gt;&lt;/div&gt;&lt;div&gt;+ Render(target : RenderTarget) &amp;lt;&amp;lt;override&amp;gt;&amp;gt;&lt;/div&gt;&lt;div&gt;- OnLoseHeath(amount : int, scene : Scene)&lt;/div&gt;&lt;div&gt;- OnScoreGain(value : int, scene : Scene)&lt;/div&gt;&lt;div&gt;- SaveHighScore()&lt;/div&gt;&lt;div&gt;- LoadHighScore()&lt;/div&gt;" style="text;strokeColor=none;fillColor=none;align=left;verticalAlign=top;spacingLeft=4;spacingRight=4;overflow=hidden;rotatable=0;points=[[0,0.5],[1,0.5]];portConstraint=eastwest;whiteSpace=wrap;html=1;" parent="0ZANX-X3bsHkDOByZwOm-17" vertex="1">
          <mxGeometry y="188" width="290" height="112" as="geometry" />
        </mxCell>
        <mxCell id="0ZANX-X3bsHkDOByZwOm-21" value="Actor" style="swimlane;fontStyle=1;align=center;verticalAlign=top;childLayout=stackLayout;horizontal=1;startSize=26;horizontalStack=0;resizeParent=1;resizeParentMax=0;resizeLast=0;collapsible=1;marginBottom=0;whiteSpace=wrap;html=1;" parent="1" vertex="1">
          <mxGeometry x="230" y="380" width="250" height="240" as="geometry" />
        </mxCell>
        <mxCell id="0ZANX-X3bsHkDOByZwOm-22" value="+ originalPosition : Vector2f&lt;div&gt;+ originalSpeed : float&lt;/div&gt;&lt;div&gt;- isHit : bool&lt;/div&gt;&lt;div&gt;- isHitTime : float&lt;/div&gt;&lt;div&gt;- isHitDuration : float {const}&lt;/div&gt;&lt;div&gt;+ waitingForSpace : bool&lt;/div&gt;" style="text;strokeColor=none;fillColor=none;align=left;verticalAlign=top;spacingLeft=4;spacingRight=4;overflow=hidden;rotatable=0;points=[[0,0.5],[1,0.5]];portConstraint=eastwest;whiteSpace=wrap;html=1;" parent="0ZANX-X3bsHkDOByZwOm-21" vertex="1">
          <mxGeometry y="26" width="250" height="104" as="geometry" />
        </mxCell>
        <mxCell id="0ZANX-X3bsHkDOByZwOm-23" value="" style="line;strokeWidth=1;fillColor=none;align=left;verticalAlign=middle;spacingTop=-1;spacingLeft=3;spacingRight=3;rotatable=0;labelPosition=right;points=[];portConstraint=eastwest;strokeColor=inherit;" parent="0ZANX-X3bsHkDOByZwOm-21" vertex="1">
          <mxGeometry y="130" width="250" height="8" as="geometry" />
        </mxCell>
        <mxCell id="0ZANX-X3bsHkDOByZwOm-24" value="#&amp;lt;&amp;lt;constructor&amp;gt;&amp;gt;(texture : string)&lt;div&gt;# Reset()&lt;/div&gt;&lt;div&gt;+ Create(scene Scene) &amp;lt;&amp;lt;override&amp;gt;&amp;gt;&lt;/div&gt;&lt;div&gt;+ Update(scene Scene, deltaTime : float) &amp;lt;&amp;lt;override&amp;gt;&amp;gt;&lt;/div&gt;&lt;div&gt;+ ApplyHit()&lt;/div&gt;" style="text;strokeColor=none;fillColor=none;align=left;verticalAlign=top;spacingLeft=4;spacingRight=4;overflow=hidden;rotatable=0;points=[[0,0.5],[1,0.5]];portConstraint=eastwest;whiteSpace=wrap;html=1;" parent="0ZANX-X3bsHkDOByZwOm-21" vertex="1">
          <mxGeometry y="138" width="250" height="102" as="geometry" />
        </mxCell>
        <mxCell id="0ZANX-X3bsHkDOByZwOm-25" value="Player" style="swimlane;fontStyle=1;align=center;verticalAlign=top;childLayout=stackLayout;horizontal=1;startSize=26;horizontalStack=0;resizeParent=1;resizeParentMax=0;resizeLast=0;collapsible=1;marginBottom=0;whiteSpace=wrap;html=1;" parent="1" vertex="1">
          <mxGeometry x="193" y="740" width="300" height="100" as="geometry" />
        </mxCell>
        <mxCell id="0ZANX-X3bsHkDOByZwOm-26" value="+ FlyingSpeed : float {const}&lt;div&gt;&amp;nbsp;&lt;/div&gt;" style="text;strokeColor=none;fillColor=none;align=left;verticalAlign=top;spacingLeft=4;spacingRight=4;overflow=hidden;rotatable=0;points=[[0,0.5],[1,0.5]];portConstraint=eastwest;whiteSpace=wrap;html=1;" parent="0ZANX-X3bsHkDOByZwOm-25" vertex="1">
          <mxGeometry y="26" width="300" height="26" as="geometry" />
        </mxCell>
        <mxCell id="0ZANX-X3bsHkDOByZwOm-27" value="" style="line;strokeWidth=1;fillColor=none;align=left;verticalAlign=middle;spacingTop=-1;spacingLeft=3;spacingRight=3;rotatable=0;labelPosition=right;points=[];portConstraint=eastwest;strokeColor=inherit;" parent="0ZANX-X3bsHkDOByZwOm-25" vertex="1">
          <mxGeometry y="52" width="300" height="8" as="geometry" />
        </mxCell>
        <mxCell id="0ZANX-X3bsHkDOByZwOm-28" value="&amp;lt;&amp;lt;override&amp;gt;&amp;gt; Update(scene : Scene, deltaTime : float)" style="text;strokeColor=none;fillColor=none;align=left;verticalAlign=top;spacingLeft=4;spacingRight=4;overflow=hidden;rotatable=0;points=[[0,0.5],[1,0.5]];portConstraint=eastwest;whiteSpace=wrap;html=1;" parent="0ZANX-X3bsHkDOByZwOm-25" vertex="1">
          <mxGeometry y="60" width="300" height="40" as="geometry" />
        </mxCell>
        <mxCell id="0ZANX-X3bsHkDOByZwOm-29" value="Enemy" style="swimlane;fontStyle=1;align=center;verticalAlign=top;childLayout=stackLayout;horizontal=1;startSize=26;horizontalStack=0;resizeParent=1;resizeParentMax=0;resizeLast=0;collapsible=1;marginBottom=0;whiteSpace=wrap;html=1;" parent="1" vertex="1">
          <mxGeometry x="522" y="740" width="320" height="120" as="geometry" />
        </mxCell>
        <mxCell id="0ZANX-X3bsHkDOByZwOm-31" value="" style="line;strokeWidth=1;fillColor=none;align=left;verticalAlign=middle;spacingTop=-1;spacingLeft=3;spacingRight=3;rotatable=0;labelPosition=right;points=[];portConstraint=eastwest;strokeColor=inherit;" parent="0ZANX-X3bsHkDOByZwOm-29" vertex="1">
          <mxGeometry y="26" width="320" height="8" as="geometry" />
        </mxCell>
        <mxCell id="0ZANX-X3bsHkDOByZwOm-32" value="+ Create(scene : Scene) &amp;lt;&amp;lt;override&amp;gt;&amp;gt;&lt;div&gt;# PickDirection(scene : Scene) : int &amp;gt;&amp;lt;&amp;lt;override&amp;gt;&amp;gt;&lt;/div&gt;&lt;div&gt;# CollideWith(scene : Scene, e : Entity) &amp;lt;&amp;lt;override&amp;gt;&lt;/div&gt;&lt;div&gt;+ Update(scene : Scene. deltaTime : float) &amp;lt;&amp;lt;override&amp;gt;&amp;gt;&lt;/div&gt;&lt;div&gt;+ Render(target : RenderTarget) &amp;lt;&amp;lt;override&amp;gt;&amp;gt;&lt;/div&gt;" style="text;strokeColor=none;fillColor=none;align=left;verticalAlign=top;spacingLeft=4;spacingRight=4;overflow=hidden;rotatable=0;points=[[0,0.5],[1,0.5]];portConstraint=eastwest;whiteSpace=wrap;html=1;" parent="0ZANX-X3bsHkDOByZwOm-29" vertex="1">
          <mxGeometry y="34" width="320" height="86" as="geometry" />
        </mxCell>
        <mxCell id="0ZANX-X3bsHkDOByZwOm-33" value="EventManager" style="swimlane;fontStyle=1;align=center;verticalAlign=top;childLayout=stackLayout;horizontal=1;startSize=26;horizontalStack=0;resizeParent=1;resizeParentMax=0;resizeLast=0;collapsible=1;marginBottom=0;whiteSpace=wrap;html=1;" parent="1" vertex="1">
          <mxGeometry x="600" y="-76" width="290" height="170" as="geometry" />
        </mxCell>
        <mxCell id="0ZANX-X3bsHkDOByZwOm-34" value="- scoreGained : int&lt;div&gt;- healthLost : int&lt;/div&gt;&lt;div&gt;+ &amp;lt;&amp;lt;event&amp;gt;&amp;gt; GainScore : ValueChangedEvent&lt;/div&gt;&lt;div&gt;+ &amp;lt;&amp;lt;event&amp;gt;&amp;gt; LoseHealth : ValueChangedEvent&lt;/div&gt;" style="text;strokeColor=none;fillColor=none;align=left;verticalAlign=top;spacingLeft=4;spacingRight=4;overflow=hidden;rotatable=0;points=[[0,0.5],[1,0.5]];portConstraint=eastwest;whiteSpace=wrap;html=1;" parent="0ZANX-X3bsHkDOByZwOm-33" vertex="1">
          <mxGeometry y="26" width="290" height="64" as="geometry" />
        </mxCell>
        <mxCell id="0ZANX-X3bsHkDOByZwOm-35" value="" style="line;strokeWidth=1;fillColor=none;align=left;verticalAlign=middle;spacingTop=-1;spacingLeft=3;spacingRight=3;rotatable=0;labelPosition=right;points=[];portConstraint=eastwest;strokeColor=inherit;" parent="0ZANX-X3bsHkDOByZwOm-33" vertex="1">
          <mxGeometry y="90" width="290" height="8" as="geometry" />
        </mxCell>
        <mxCell id="0ZANX-X3bsHkDOByZwOm-36" value="+ PublishGainScore(amount : int, scene : Scene)&lt;div&gt;+ PublishLoseHeath(amount : int, scene : Scene)&lt;/div&gt;" style="text;strokeColor=none;fillColor=none;align=left;verticalAlign=top;spacingLeft=4;spacingRight=4;overflow=hidden;rotatable=0;points=[[0,0.5],[1,0.5]];portConstraint=eastwest;whiteSpace=wrap;html=1;" parent="0ZANX-X3bsHkDOByZwOm-33" vertex="1">
          <mxGeometry y="98" width="290" height="72" as="geometry" />
        </mxCell>
        <mxCell id="0ZANX-X3bsHkDOByZwOm-37" value="AssetManager" style="swimlane;fontStyle=1;align=center;verticalAlign=top;childLayout=stackLayout;horizontal=1;startSize=26;horizontalStack=0;resizeParent=1;resizeParentMax=0;resizeLast=0;collapsible=1;marginBottom=0;whiteSpace=wrap;html=1;" parent="1" vertex="1">
          <mxGeometry x="610" y="120" width="250" height="180" as="geometry" />
        </mxCell>
        <mxCell id="0ZANX-X3bsHkDOByZwOm-38" value="&lt;u&gt;+ AssetPath : string {readonly}&lt;/u&gt;&lt;div&gt;- textures : Dictionary&amp;lt;string, Texture&amp;gt; {readonly&lt;span style=&quot;background-color: transparent; color: light-dark(rgb(0, 0, 0), rgb(255, 255, 255));&quot;&gt;}&lt;/span&gt;&lt;/div&gt;&lt;div&gt;&lt;span style=&quot;background-color: transparent; color: light-dark(rgb(0, 0, 0), rgb(255, 255, 255));&quot;&gt;- fonts : Dictionary&amp;lt;string, Font&amp;gt; {readonly}&lt;/span&gt;&lt;/div&gt;" style="text;strokeColor=none;fillColor=none;align=left;verticalAlign=top;spacingLeft=4;spacingRight=4;overflow=hidden;rotatable=0;points=[[0,0.5],[1,0.5]];portConstraint=eastwest;whiteSpace=wrap;html=1;" parent="0ZANX-X3bsHkDOByZwOm-37" vertex="1">
          <mxGeometry y="26" width="250" height="84" as="geometry" />
        </mxCell>
        <mxCell id="0ZANX-X3bsHkDOByZwOm-39" value="" style="line;strokeWidth=1;fillColor=none;align=left;verticalAlign=middle;spacingTop=-1;spacingLeft=3;spacingRight=3;rotatable=0;labelPosition=right;points=[];portConstraint=eastwest;strokeColor=inherit;" parent="0ZANX-X3bsHkDOByZwOm-37" vertex="1">
          <mxGeometry y="110" width="250" height="8" as="geometry" />
        </mxCell>
        <mxCell id="0ZANX-X3bsHkDOByZwOm-40" value="+ LoadTexture(name : string) : Texture&lt;div&gt;+ LoadFont(name : string) : Font&lt;/div&gt;" style="text;strokeColor=none;fillColor=none;align=left;verticalAlign=top;spacingLeft=4;spacingRight=4;overflow=hidden;rotatable=0;points=[[0,0.5],[1,0.5]];portConstraint=eastwest;whiteSpace=wrap;html=1;" parent="0ZANX-X3bsHkDOByZwOm-37" vertex="1">
          <mxGeometry y="118" width="250" height="62" as="geometry" />
        </mxCell>
        <mxCell id="0ZANX-X3bsHkDOByZwOm-41" value="Explosion" style="swimlane;fontStyle=1;align=center;verticalAlign=top;childLayout=stackLayout;horizontal=1;startSize=26;horizontalStack=0;resizeParent=1;resizeParentMax=0;resizeLast=0;collapsible=1;marginBottom=0;whiteSpace=wrap;html=1;" parent="1" vertex="1">
          <mxGeometry x="510" y="380" width="310" height="130" as="geometry" />
        </mxCell>
        <mxCell id="0ZANX-X3bsHkDOByZwOm-42" value="+ Diamater : float {const}&lt;div&gt;+ Radius : float {const}&lt;/div&gt;" style="text;strokeColor=none;fillColor=none;align=left;verticalAlign=top;spacingLeft=4;spacingRight=4;overflow=hidden;rotatable=0;points=[[0,0.5],[1,0.5]];portConstraint=eastwest;whiteSpace=wrap;html=1;" parent="0ZANX-X3bsHkDOByZwOm-41" vertex="1">
          <mxGeometry y="26" width="310" height="44" as="geometry" />
        </mxCell>
        <mxCell id="0ZANX-X3bsHkDOByZwOm-43" value="" style="line;strokeWidth=1;fillColor=none;align=left;verticalAlign=middle;spacingTop=-1;spacingLeft=3;spacingRight=3;rotatable=0;labelPosition=right;points=[];portConstraint=eastwest;strokeColor=inherit;" parent="0ZANX-X3bsHkDOByZwOm-41" vertex="1">
          <mxGeometry y="70" width="310" height="8" as="geometry" />
        </mxCell>
        <mxCell id="0ZANX-X3bsHkDOByZwOm-44" value="+&amp;lt;&amp;lt;constructor&amp;gt;&amp;gt;&lt;div&gt;+ Update(scene : Scene, deltaTime : float) &amp;lt;&amp;lt;override&amp;gt;&amp;gt;&lt;/div&gt;&lt;div&gt;- ExplodeAnimation()&lt;/div&gt;&lt;div&gt;&lt;br&gt;&lt;/div&gt;" style="text;strokeColor=none;fillColor=none;align=left;verticalAlign=top;spacingLeft=4;spacingRight=4;overflow=hidden;rotatable=0;points=[[0,0.5],[1,0.5]];portConstraint=eastwest;whiteSpace=wrap;html=1;" parent="0ZANX-X3bsHkDOByZwOm-41" vertex="1">
          <mxGeometry y="78" width="310" height="52" as="geometry" />
        </mxCell>
        <mxCell id="0ZANX-X3bsHkDOByZwOm-45" value="Bullet" style="swimlane;fontStyle=1;align=center;verticalAlign=top;childLayout=stackLayout;horizontal=1;startSize=26;horizontalStack=0;resizeParent=1;resizeParentMax=0;resizeLast=0;collapsible=1;marginBottom=0;whiteSpace=wrap;html=1;" parent="1" vertex="1">
          <mxGeometry x="-90" y="740" width="260" height="100" as="geometry" />
        </mxCell>
        <mxCell id="0ZANX-X3bsHkDOByZwOm-46" value="+ BulletSpeed : float {const}&lt;div&gt;&lt;br&gt;&lt;/div&gt;" style="text;strokeColor=none;fillColor=none;align=left;verticalAlign=top;spacingLeft=4;spacingRight=4;overflow=hidden;rotatable=0;points=[[0,0.5],[1,0.5]];portConstraint=eastwest;whiteSpace=wrap;html=1;" parent="0ZANX-X3bsHkDOByZwOm-45" vertex="1">
          <mxGeometry y="26" width="260" height="26" as="geometry" />
        </mxCell>
        <mxCell id="0ZANX-X3bsHkDOByZwOm-47" value="" style="line;strokeWidth=1;fillColor=none;align=left;verticalAlign=middle;spacingTop=-1;spacingLeft=3;spacingRight=3;rotatable=0;labelPosition=right;points=[];portConstraint=eastwest;strokeColor=inherit;" parent="0ZANX-X3bsHkDOByZwOm-45" vertex="1">
          <mxGeometry y="52" width="260" height="8" as="geometry" />
        </mxCell>
        <mxCell id="0ZANX-X3bsHkDOByZwOm-48" value="&lt;div&gt;+ &amp;lt;&amp;lt;constructor&amp;gt;&amp;gt;&lt;/div&gt;+ Render(target : RenderTarget) &amp;lt;&amp;lt;override&amp;gt;&amp;gt;" style="text;strokeColor=none;fillColor=none;align=left;verticalAlign=top;spacingLeft=4;spacingRight=4;overflow=hidden;rotatable=0;points=[[0,0.5],[1,0.5]];portConstraint=eastwest;whiteSpace=wrap;html=1;" parent="0ZANX-X3bsHkDOByZwOm-45" vertex="1">
          <mxGeometry y="60" width="260" height="40" as="geometry" />
        </mxCell>
        <mxCell id="0ZANX-X3bsHkDOByZwOm-62" value="" style="endArrow=block;endFill=1;html=1;edgeStyle=orthogonalEdgeStyle;align=left;verticalAlign=top;rounded=0;exitX=0.454;exitY=0.001;exitDx=0;exitDy=0;exitPerimeter=0;" parent="1" edge="1">
          <mxGeometry x="-1" relative="1" as="geometry">
            <mxPoint x="40.000000000000085" y="380.29999999999995" as="sourcePoint" />
            <mxPoint x="338.34" y="320" as="targetPoint" />
            <Array as="points">
              <mxPoint x="40.34" y="360" />
              <mxPoint x="338.34" y="360" />
              <mxPoint x="338.34" y="321" />
            </Array>
          </mxGeometry>
        </mxCell>
        <mxCell id="RpczLv7352vA3vRCv6O_-8" value="" style="endArrow=open;html=1;endSize=12;startArrow=diamondThin;startSize=14;startFill=1;edgeStyle=orthogonalEdgeStyle;align=left;verticalAlign=bottom;rounded=0;entryX=0.001;entryY=0.462;entryDx=0;entryDy=0;entryPerimeter=0;" parent="1" target="0ZANX-X3bsHkDOByZwOm-11" edge="1" source="0ZANX-X3bsHkDOByZwOm-7">
          <mxGeometry x="-1" y="3" relative="1" as="geometry">
            <mxPoint x="480" y="167.1" as="sourcePoint" />
            <mxPoint x="640" y="-100" as="targetPoint" />
            <Array as="points">
              <mxPoint x="530" y="164" />
              <mxPoint x="530" y="-195" />
            </Array>
          </mxGeometry>
        </mxCell>
        <mxCell id="RpczLv7352vA3vRCv6O_-10" value="" style="endArrow=open;html=1;endSize=12;startArrow=diamondThin;startSize=14;startFill=1;edgeStyle=orthogonalEdgeStyle;align=left;verticalAlign=bottom;rounded=0;entryX=0.001;entryY=0.48;entryDx=0;entryDy=0;entryPerimeter=0;" parent="1" target="0ZANX-X3bsHkDOByZwOm-39" edge="1" source="0ZANX-X3bsHkDOByZwOm-7">
          <mxGeometry x="-1" y="3" relative="1" as="geometry">
            <mxPoint x="480" y="166" as="sourcePoint" />
            <mxPoint x="600" y="230" as="targetPoint" />
            <Array as="points">
              <mxPoint x="530" y="164" />
              <mxPoint x="530" y="234" />
              <mxPoint x="600" y="234" />
            </Array>
          </mxGeometry>
        </mxCell>
        <mxCell id="RpczLv7352vA3vRCv6O_-14" value="0..1" style="text;html=1;align=center;verticalAlign=middle;resizable=0;points=[];autosize=1;strokeColor=none;fillColor=none;" parent="1" vertex="1">
          <mxGeometry x="290" y="-6" width="40" height="30" as="geometry" />
        </mxCell>
        <mxCell id="RpczLv7352vA3vRCv6O_-17" value="0..1" style="text;html=1;align=center;verticalAlign=middle;resizable=0;points=[];autosize=1;strokeColor=none;fillColor=none;" parent="1" vertex="1">
          <mxGeometry x="482" y="143" width="40" height="30" as="geometry" />
        </mxCell>
        <mxCell id="RpczLv7352vA3vRCv6O_-19" value="1..1" style="text;html=1;align=center;verticalAlign=middle;resizable=0;points=[];autosize=1;strokeColor=none;fillColor=none;" parent="1" vertex="1">
          <mxGeometry x="566" y="214" width="40" height="30" as="geometry" />
        </mxCell>
        <mxCell id="RpczLv7352vA3vRCv6O_-20" value="1..1" style="text;html=1;align=center;verticalAlign=middle;resizable=0;points=[];autosize=1;strokeColor=none;fillColor=none;" parent="1" vertex="1">
          <mxGeometry x="555" y="-2" width="40" height="30" as="geometry" />
        </mxCell>
        <mxCell id="RpczLv7352vA3vRCv6O_-25" value="" style="endArrow=open;endFill=1;endSize=12;html=1;rounded=0;exitX=0.5;exitY=0;exitDx=0;exitDy=0;entryX=0.5;entryY=0;entryDx=0;entryDy=0;" parent="1" source="RpczLv7352vA3vRCv6O_-35" target="0ZANX-X3bsHkDOByZwOm-1" edge="1">
          <mxGeometry width="160" relative="1" as="geometry">
            <mxPoint x="260" y="250" as="sourcePoint" />
            <mxPoint x="430" y="-130" as="targetPoint" />
            <Array as="points">
              <mxPoint x="343" y="-280" />
              <mxPoint x="250" y="-280" />
              <mxPoint x="200" y="-280" />
              <mxPoint x="120" y="-280" />
            </Array>
          </mxGeometry>
        </mxCell>
        <mxCell id="RpczLv7352vA3vRCv6O_-29" value="" style="endArrow=diamondThin;endFill=1;endSize=24;html=1;rounded=0;entryX=0.443;entryY=1.01;entryDx=0;entryDy=0;entryPerimeter=0;exitX=0.5;exitY=0;exitDx=0;exitDy=0;" parent="1" edge="1" target="RpczLv7352vA3vRCv6O_-38" source="0ZANX-X3bsHkDOByZwOm-5">
          <mxGeometry width="160" relative="1" as="geometry">
            <mxPoint x="342.59999999999997" y="69" as="sourcePoint" />
            <mxPoint x="342.59999999999997" y="10" as="targetPoint" />
            <Array as="points" />
          </mxGeometry>
        </mxCell>
        <mxCell id="RpczLv7352vA3vRCv6O_-35" value="Scene" style="swimlane;fontStyle=1;align=center;verticalAlign=top;childLayout=stackLayout;horizontal=1;startSize=26;horizontalStack=0;resizeParent=1;resizeParentMax=0;resizeLast=0;collapsible=1;marginBottom=0;whiteSpace=wrap;html=1;" parent="1" vertex="1">
          <mxGeometry x="233" y="-250" width="220" height="250" as="geometry" />
        </mxCell>
        <mxCell id="RpczLv7352vA3vRCv6O_-36" value="+ entities : List&amp;lt;Entity&amp;gt;&lt;div&gt;+ Loader : SceneLoader&amp;nbsp;&lt;span style=&quot;background-color: transparent; color: light-dark(rgb(0, 0, 0), rgb(255, 255, 255));&quot;&gt;&amp;nbsp;&lt;/span&gt;&lt;span style=&quot;background-color: transparent; color: light-dark(rgb(0, 0, 0), rgb(255, 255, 255));&quot;&gt;{readonly}&lt;/span&gt;&lt;/div&gt;&lt;div&gt;+ Assets : AssetManager&lt;span style=&quot;background-color: transparent; color: light-dark(rgb(0, 0, 0), rgb(255, 255, 255));&quot;&gt;&amp;nbsp;&lt;/span&gt;&lt;span style=&quot;background-color: transparent; color: light-dark(rgb(0, 0, 0), rgb(255, 255, 255));&quot;&gt;{readonly}&lt;/span&gt;&lt;/div&gt;&lt;div&gt;+ Events : EventManager {readonly}&lt;/div&gt;" style="text;strokeColor=none;fillColor=none;align=left;verticalAlign=top;spacingLeft=4;spacingRight=4;overflow=hidden;rotatable=0;points=[[0,0.5],[1,0.5]];portConstraint=eastwest;whiteSpace=wrap;html=1;" parent="RpczLv7352vA3vRCv6O_-35" vertex="1">
          <mxGeometry y="26" width="220" height="74" as="geometry" />
        </mxCell>
        <mxCell id="RpczLv7352vA3vRCv6O_-37" value="" style="line;strokeWidth=1;fillColor=none;align=left;verticalAlign=middle;spacingTop=-1;spacingLeft=3;spacingRight=3;rotatable=0;labelPosition=right;points=[];portConstraint=eastwest;strokeColor=inherit;" parent="RpczLv7352vA3vRCv6O_-35" vertex="1">
          <mxGeometry y="100" width="220" height="8" as="geometry" />
        </mxCell>
        <mxCell id="RpczLv7352vA3vRCv6O_-38" value="&lt;div&gt;+&amp;lt;&amp;lt;constructor&amp;gt;&amp;gt;(loader, assets, events)&lt;/div&gt;+ Spawn(entity : Entity)&lt;div&gt;+Clear()&lt;/div&gt;&lt;div&gt;+ UpdateAll(deltaTime : float)&lt;/div&gt;&lt;div&gt;+ RenderAll(target : RenderTarget)&lt;/div&gt;&lt;div&gt;+ FindByType&amp;lt;T&amp;gt;(out found: T): bool&lt;/div&gt;&lt;div&gt;+ FindIntersects(bounds : FloatRect) : Ienumerable&amp;lt;Entity&amp;gt;&lt;/div&gt;&lt;span style=&quot;box-sizing: border-box; color: transparent; position: absolute; white-space: pre; cursor: text; transform-origin: 0% 0%; display: block; float: left; margin-bottom: -810px; margin-right: -810px; background-color: rgb(242, 242, 242); left: 85.752px; top: 763.177px; font-size: 14.976px; font-family: monospace; transform: scaleX(1.00254);&quot; class=&quot;textLayer--absolute&quot; dir=&quot;ltr&quot; role=&quot;presentation&quot;&gt;FindByType&lt;/span&gt;&lt;span style=&quot;box-sizing: border-box; color: transparent; position: absolute; white-space: pre; cursor: text; transform-origin: 0% 0%; display: block; float: left; margin-bottom: -810px; margin-right: -810px; background-color: rgb(242, 242, 242); left: 168.405px; top: 763.177px; font-size: 14.976px; font-family: monospace; transform: scaleX(1.00117);&quot; class=&quot;textLayer--absolute&quot; dir=&quot;ltr&quot; role=&quot;presentation&quot;&gt;&amp;lt;T&amp;gt;(out found: T): bool&lt;/span&gt;&lt;br style=&quot;box-sizing: border-box; font-family: Lato, sans-serif; font-size: medium; background-color: rgb(242, 242, 242);&quot; class=&quot;textLayer--absolute&quot; role=&quot;presentation&quot;&gt;&lt;span style=&quot;box-sizing: border-box; color: transparent; position: absolute; white-space: pre; cursor: text; transform-origin: 0% 0%; display: block; float: left; margin-bottom: -810px; margin-right: -810px; background-color: rgb(242, 242, 242); left: 77.472px; top: 781.25px; font-size: 14.94px; font-family: monospace;&quot; class=&quot;textLayer--absolute&quot; dir=&quot;ltr&quot; role=&quot;presentation&quot;&gt;+&lt;/span&gt;&lt;span style=&quot;box-sizing: border-box; color: transparent; position: absolute; white-space: pre; cursor: text; transform-origin: 0% 0%; display: block; float: left; margin-bottom: -810px; margin-right: -810px; background-color: rgb(242, 242, 242); left: 85.752px; top: 781.25px; font-size: 14.94px; font-family: monospace; transform: scaleX(1.00256);&quot; class=&quot;textLayer--absolute&quot; dir=&quot;ltr&quot; role=&quot;presentation&quot;&gt;FindIntersects&lt;/span&gt;&lt;span style=&quot;box-sizing: border-box; color: transparent; position: absolute; white-space: pre; cursor: text; transform-origin: 0% 0%; display: block; float: left; margin-bottom: -810px; margin-right: -810px; background-color: rgb(242, 242, 242); left: 201.345px; top: 781.25px; font-size: 14.94px; font-family: monospace; transform: scaleX(1.00013);&quot; class=&quot;textLayer--absolute&quot; dir=&quot;ltr&quot; role=&quot;presentation&quot;&gt;(bounds:&lt;/span&gt;&lt;span style=&quot;box-sizing: border-box; color: transparent; position: absolute; white-space: pre; cursor: text; transform-origin: 0% 0%; display: block; float: left; margin-bottom: -810px; margin-right: -810px; background-color: rgb(242, 242, 242); left: 267.066px; top: 781.25px; font-size: 14.94px; font-family: monospace;&quot; class=&quot;textLayer--absolute&quot; dir=&quot;ltr&quot; role=&quot;presentation&quot;&gt; &lt;/span&gt;&lt;span style=&quot;box-sizing: border-box; color: transparent; position: absolute; white-space: pre; cursor: text; transform-origin: 0% 0%; display: block; float: left; margin-bottom: -810px; margin-right: -810px; background-color: rgb(242, 242, 242); left: 275.505px; top: 781.25px; font-size: 14.94px; font-family: monospace; transform: scaleX(1.00783);&quot; class=&quot;textLayer--absolute&quot; dir=&quot;ltr&quot; role=&quot;presentation&quot;&gt;FloatRect&lt;/span&gt;&lt;span style=&quot;box-sizing: border-box; color: transparent; position: absolute; white-space: pre; cursor: text; transform-origin: 0% 0%; display: block; float: left; margin-bottom: -810px; margin-right: -810px; background-color: rgb(242, 242, 242); left: 349.89px; top: 781.25px; font-size: 14.94px; font-family: monospace;&quot; class=&quot;textLayer--absolute&quot; dir=&quot;ltr&quot; role=&quot;presentation&quot;&gt;)&lt;/span&gt;&lt;br style=&quot;box-sizing: border-box; font-family: Lato, sans-serif; font-size: medium; background-color: rgb(242, 242, 242);&quot; class=&quot;textLayer--absolute&quot; role=&quot;presentation&quot;&gt;&lt;span style=&quot;box-sizing: border-box; color: transparent; position: absolute; white-space: pre; cursor: text; transform-origin: 0% 0%; display: block; float: left; margin-bottom: -810px; margin-right: -810px; background-color: rgb(242, 242, 242); left: 110.592px; top: 799.25px; font-size: 14.94px; font-family: monospace;&quot; class=&quot;textLayer--absolute&quot; dir=&quot;ltr&quot; role=&quot;presentation&quot;&gt;:&lt;/span&gt;&lt;span style=&quot;box-sizing: border-box; color: transparent; position: absolute; white-space: pre; cursor: text; transform-origin: 0% 0%; display: block; float: left; margin-bottom: -810px; margin-right: -810px; background-color: rgb(242, 242, 242); left: 118.809px; top: 799.25px; font-size: 14.94px; font-family: monospace;&quot; class=&quot;textLayer--absolute&quot; dir=&quot;ltr&quot; role=&quot;presentation&quot;&gt; &lt;/span&gt;&lt;span style=&quot;box-sizing: border-box; color: transparent; position: absolute; white-space: pre; cursor: text; transform-origin: 0% 0%; display: block; float: left; margin-bottom: -810px; margin-right: -810px; background-color: rgb(242, 242, 242); left: 127.188px; top: 799.25px; font-size: 14.94px; font-family: monospace; transform: scaleX(1.00168);&quot; class=&quot;textLayer--absolute&quot; dir=&quot;ltr&quot; role=&quot;presentation&quot;&gt;IEnumerable&lt;/span&gt;&lt;span style=&quot;box-sizing: border-box; color: transparent; position: absolute; white-space: pre; cursor: text; transform-origin: 0% 0%; display: block; float: left; margin-bottom: -810px; margin-right: -810px; background-color: rgb(242, 242, 242); left: 217.905px; top: 799.25px; font-size: 14.94px; font-family: monospace; transform: scaleX(1.00013);&quot; class=&quot;textLayer--absolute&quot; dir=&quot;ltr&quot; role=&quot;presentation&quot;&gt;&amp;lt;Entity&amp;gt;&lt;/span&gt;&lt;div&gt;&lt;br&gt;&lt;/div&gt;" style="text;strokeColor=none;fillColor=none;align=left;verticalAlign=top;spacingLeft=4;spacingRight=4;overflow=hidden;rotatable=0;points=[[0,0.5],[1,0.5]];portConstraint=eastwest;whiteSpace=wrap;html=1;" parent="RpczLv7352vA3vRCv6O_-35" vertex="1">
          <mxGeometry y="108" width="220" height="142" as="geometry" />
        </mxCell>
        <mxCell id="RpczLv7352vA3vRCv6O_-39" value="1..*" style="text;html=1;align=center;verticalAlign=middle;resizable=0;points=[];autosize=1;strokeColor=none;fillColor=none;" parent="1" vertex="1">
          <mxGeometry x="290" y="50" width="40" height="30" as="geometry" />
        </mxCell>
        <mxCell id="RpczLv7352vA3vRCv6O_-9" value="" style="endArrow=open;html=1;endSize=12;startArrow=diamondThin;startSize=14;startFill=1;edgeStyle=orthogonalEdgeStyle;align=left;verticalAlign=bottom;rounded=0;jumpSize=0;entryX=0.002;entryY=0.408;entryDx=0;entryDy=0;entryPerimeter=0;" parent="1" target="0ZANX-X3bsHkDOByZwOm-35" edge="1">
          <mxGeometry x="-1" y="3" relative="1" as="geometry">
            <mxPoint x="480" y="164" as="sourcePoint" />
            <mxPoint x="600" y="20" as="targetPoint" />
            <Array as="points">
              <mxPoint x="530" y="164" />
              <mxPoint x="530" y="18" />
              <mxPoint x="601" y="18" />
            </Array>
          </mxGeometry>
        </mxCell>
        <mxCell id="fwKeI1qWiOexo6FlLitj-10" value="1..1" style="text;html=1;align=center;verticalAlign=middle;resizable=0;points=[];autosize=1;strokeColor=none;fillColor=none;" vertex="1" parent="1">
          <mxGeometry x="560" y="-216" width="40" height="30" as="geometry" />
        </mxCell>
        <mxCell id="fwKeI1qWiOexo6FlLitj-12" value="«delegate»&lt;br&gt;&lt;b&gt;ValueChangedEvent(value : int, scene : Scene)&lt;/b&gt;" style="html=1;whiteSpace=wrap;" vertex="1" parent="1">
          <mxGeometry x="1070" y="-12" width="290" height="50" as="geometry" />
        </mxCell>
        <mxCell id="fwKeI1qWiOexo6FlLitj-13" value="" style="endArrow=diamondThin;endFill=1;endSize=24;html=1;rounded=0;entryX=0.997;entryY=0.475;entryDx=0;entryDy=0;entryPerimeter=0;exitX=0;exitY=0.6;exitDx=0;exitDy=0;exitPerimeter=0;" edge="1" parent="1" source="fwKeI1qWiOexo6FlLitj-12" target="0ZANX-X3bsHkDOByZwOm-35">
          <mxGeometry width="160" relative="1" as="geometry">
            <mxPoint x="1000" y="33.75" as="sourcePoint" />
            <mxPoint x="899.7099999999999" y="34.25400000000013" as="targetPoint" />
            <Array as="points">
              <mxPoint x="910" y="18" />
            </Array>
          </mxGeometry>
        </mxCell>
        <mxCell id="fwKeI1qWiOexo6FlLitj-15" value="" style="endArrow=none;html=1;rounded=0;exitX=0.48;exitY=0;exitDx=0;exitDy=0;exitPerimeter=0;" edge="1" parent="1" source="0ZANX-X3bsHkDOByZwOm-21">
          <mxGeometry width="50" height="50" relative="1" as="geometry">
            <mxPoint x="342.96" y="380" as="sourcePoint" />
            <mxPoint x="330" y="360" as="targetPoint" />
            <Array as="points">
              <mxPoint x="350" y="360" />
            </Array>
          </mxGeometry>
        </mxCell>
        <mxCell id="fwKeI1qWiOexo6FlLitj-16" value="" style="endArrow=none;html=1;rounded=0;entryX=0.5;entryY=0;entryDx=0;entryDy=0;" edge="1" parent="1" target="0ZANX-X3bsHkDOByZwOm-41">
          <mxGeometry width="50" height="50" relative="1" as="geometry">
            <mxPoint x="350" y="360" as="sourcePoint" />
            <mxPoint x="660" y="360" as="targetPoint" />
            <Array as="points">
              <mxPoint x="665" y="360" />
            </Array>
          </mxGeometry>
        </mxCell>
        <mxCell id="fwKeI1qWiOexo6FlLitj-18" value="Background" style="swimlane;fontStyle=1;align=center;verticalAlign=top;childLayout=stackLayout;horizontal=1;startSize=26;horizontalStack=0;resizeParent=1;resizeParentMax=0;resizeLast=0;collapsible=1;marginBottom=0;whiteSpace=wrap;html=1;" vertex="1" parent="1">
          <mxGeometry x="860" y="380" width="310" height="90" as="geometry" />
        </mxCell>
        <mxCell id="fwKeI1qWiOexo6FlLitj-20" value="" style="line;strokeWidth=1;fillColor=none;align=left;verticalAlign=middle;spacingTop=-1;spacingLeft=3;spacingRight=3;rotatable=0;labelPosition=right;points=[];portConstraint=eastwest;strokeColor=inherit;" vertex="1" parent="fwKeI1qWiOexo6FlLitj-18">
          <mxGeometry y="26" width="310" height="8" as="geometry" />
        </mxCell>
        <mxCell id="fwKeI1qWiOexo6FlLitj-21" value="+&amp;lt;&amp;lt;constructor&amp;gt;&amp;gt;&lt;div&gt;+ Render(target : RenderTarget) &amp;lt;&amp;lt;override&amp;gt;&amp;gt;&lt;/div&gt;&lt;div&gt;+ Update(scene : Scene, deltaTime : float) &amp;lt;&amp;lt;override&amp;gt;&lt;/div&gt;" style="text;strokeColor=none;fillColor=none;align=left;verticalAlign=top;spacingLeft=4;spacingRight=4;overflow=hidden;rotatable=0;points=[[0,0.5],[1,0.5]];portConstraint=eastwest;whiteSpace=wrap;html=1;" vertex="1" parent="fwKeI1qWiOexo6FlLitj-18">
          <mxGeometry y="34" width="310" height="56" as="geometry" />
        </mxCell>
        <mxCell id="fwKeI1qWiOexo6FlLitj-22" value="" style="endArrow=none;html=1;rounded=0;entryX=0.5;entryY=0;entryDx=0;entryDy=0;" edge="1" parent="1" target="fwKeI1qWiOexo6FlLitj-18">
          <mxGeometry width="50" height="50" relative="1" as="geometry">
            <mxPoint x="660" y="360" as="sourcePoint" />
            <mxPoint x="1000" y="300" as="targetPoint" />
            <Array as="points">
              <mxPoint x="1015" y="360" />
            </Array>
          </mxGeometry>
        </mxCell>
        <mxCell id="fwKeI1qWiOexo6FlLitj-23" value="" style="endArrow=block;endFill=1;html=1;edgeStyle=orthogonalEdgeStyle;align=left;verticalAlign=top;rounded=0;exitX=0.492;exitY=0.005;exitDx=0;exitDy=0;exitPerimeter=0;" edge="1" parent="1" source="0ZANX-X3bsHkDOByZwOm-25" target="0ZANX-X3bsHkDOByZwOm-24">
          <mxGeometry x="-1" relative="1" as="geometry">
            <mxPoint x="310" y="700" as="sourcePoint" />
            <mxPoint x="470" y="700" as="targetPoint" />
            <Array as="points">
              <mxPoint x="341" y="680" />
              <mxPoint x="341" y="680" />
            </Array>
          </mxGeometry>
        </mxCell>
        <mxCell id="fwKeI1qWiOexo6FlLitj-27" value="" style="endArrow=none;html=1;rounded=0;exitX=0.5;exitY=0;exitDx=0;exitDy=0;" edge="1" parent="1" source="0ZANX-X3bsHkDOByZwOm-45">
          <mxGeometry width="50" height="50" relative="1" as="geometry">
            <mxPoint x="170" y="720" as="sourcePoint" />
            <mxPoint x="340" y="720" as="targetPoint" />
            <Array as="points">
              <mxPoint x="40" y="720" />
            </Array>
          </mxGeometry>
        </mxCell>
        <mxCell id="fwKeI1qWiOexo6FlLitj-28" value="" style="endArrow=none;html=1;rounded=0;entryX=0.5;entryY=0;entryDx=0;entryDy=0;" edge="1" parent="1" target="0ZANX-X3bsHkDOByZwOm-29">
          <mxGeometry width="50" height="50" relative="1" as="geometry">
            <mxPoint x="340" y="720" as="sourcePoint" />
            <mxPoint x="680" y="690" as="targetPoint" />
            <Array as="points">
              <mxPoint x="682" y="720" />
            </Array>
          </mxGeometry>
        </mxCell>
        <mxCell id="fwKeI1qWiOexo6FlLitj-29" value="1..1" style="text;html=1;align=center;verticalAlign=middle;resizable=0;points=[];autosize=1;strokeColor=none;fillColor=none;" vertex="1" parent="1">
          <mxGeometry x="902" y="-3" width="40" height="30" as="geometry" />
        </mxCell>
        <mxCell id="fwKeI1qWiOexo6FlLitj-30" value="1..1" style="text;html=1;align=center;verticalAlign=middle;resizable=0;points=[];autosize=1;strokeColor=none;fillColor=none;" vertex="1" parent="1">
          <mxGeometry x="1036" y="-3" width="40" height="30" as="geometry" />
        </mxCell>
      </root>
    </mxGraphModel>
  </diagram>
</mxfile>
